<svg xmlns="http://www.w3.org/2000/svg" viewBox="0 0 24 24" width="50px" height="50px">
    <g fill="#000000">
        <path d="M12 2.162c3.205 0 3.587.012 4.857.07 1.32.06 2.4.28 3.304.59a6.5 6.5 0 0 1 2.466 1.65 6.5 6.5 0 0 1 1.65 2.466c.31.905.53 1.984.59 3.304.058 1.27.07 1.652.07 4.857s-.012 3.587-.07 4.857c-.06 1.32-.28 2.4-.59 3.304a6.5 6.5 0 0 1-1.65 2.466 6.5 6.5 0 0 1-2.466 1.65c-.905.31-1.984.53-3.304.59-1.27.058-1.652.07-4.857.07s-3.587-.012-4.857-.07c-1.32-.06-2.4-.28-3.304-.59a6.5 6.5 0 0 1-2.466-1.65 6.5 6.5 0 0 1-1.65-2.466c-.31-.905-.53-1.984-.59-3.304C2.162 15.748 2.15 15.366 2.15 12s.012-3.587.07-4.857c.06-1.32.28-2.4.59-3.304a6.5 6.5 0 0 1 1.65-2.466A6.5 6.5 0 0 1 8.68 2.752C9.585 2.44 10.664 2.22 12 2.162zm0-2.162C8.743 0 8.356.007 7.48.07 6.626.12 5.87.305 5.204.622A8.516 8.516 0 0 0 3.14 2.877C2.494 3.542 2.08 4.298 1.93 5.152 1.866 6.026 1.862 6.414 1.862 10c0 3.586.004 3.974.068 4.848.15.854.563 1.61 1.208 2.275a8.516 8.516 0 0 0 1.664 1.07c.66.317 1.426.502 2.28.553.872.067 1.258.075 4.394.075s3.522-.008 4.394-.075c.854-.051 1.62-.236 2.28-.553a8.516 8.516 0 0 0 1.664-1.07c.645-.665 1.057-1.421 1.208-2.275.064-.874.068-1.262.068-4.848 0-3.586-.004-3.974-.068-4.848-.151-.854-.563-1.61-1.208-2.275A8.516 8.516 0 0 0 18.796.622C18.13.305 17.374.12 16.52.07 15.644.007 15.257 0 12 0zM12 5.838a6.162 6.162 0 1 0 0 12.324 6.162 6.162 0 0 0 0-12.324zm0 10.294a4.132 4.132 0 1 1 0-8.264 4.132 4.132 0 0 1 0 8.264zm4.754-10.13a1.12 1.12 0 1 0 0 2.239 1.12 1.12 0 0 0 0-2.239z"/>
    </g>
</svg>