<svg xmlns="http://www.w3.org/2000/svg" viewBox="0 0 24 24" width="50px" height="50px">
    <path fill="#FFFFFF" d="M21 15.46c-1.65 0-3-1.35-3-3s1.35-3 3-3 3 1.35 3 3-1.35 3-3 3zM3 1h18c1.1 0 2 .9 2 2v18c0 1.1-.9 2-2 2H3c-1.1 0-2-.9-2-2V3c0-1.1.9-2 2-2zm0 2v18h18V3H3zm9 15.6c-3.36 0-6.6-1.33-9-3.5 0-1.67.67-3.2 1.7-4.3.38-.36.83-.67 1.32-.93.54-.29 1.14-.43 1.76-.43.71 0 1.41.18 2.02.5 1.01.5 1.94 1.26 2.67 2.2 1.24 1.65 2.56 2.94 4.01 3.85.69.36 1.45.54 2.25.54 1.1 0 2.17-.33 3.06-.94 0 1.93-1.1 3.83-3.3 5.5-2.32 1.73-5.26 2.6-8.7 2.6z"/>
</svg>