<svg xmlns="http://www.w3.org/2000/svg" viewBox="0 0 24 24" width="50px" height="50px">
    <g fill="#FFFC00">
        <path d="M12 0C5.373 0 0 5.373 0 12c0 4.532 2.455 8.489 6.206 10.633-.133-.518-.257-1.307-.257-2.071 0-2.007 1.148-3.647 2.637-3.647 1.022 0 1.854.866 1.854 2.078 0 1.153-.1 2.146-.1 2.146s.001.047.004.075c.333.018.691-.068.691-.068.019-.056.045-.104.066-.16.614-1.767 1.089-3.619 1.089-5.534 0-2.936-1.193-5.268-4.091-5.268-2.383 0-3.613 1.866-3.613 3.821 0 1.186.448 2.116 1.138 2.492.129.078.294.113.42.113.263 0 .517-.098.692-.261.196-.198.22-.477.22-.753 0-.002 0-.005-.001-.007.001-.001.002-.003.002-.004-.083-.052-.191-.154-.263-.244C15.733 10.84 16 11.991 16 13.18c0 3.031-1.43 5.721-3.475 5.721-.565 0-1.166-.183-1.642-.461.086.433.191.861.291 1.261.391.034.786.052 1.175.052 5.21 0 9.474-4.43 9.474-9.846 0-5.452-4.471-9.845-9.971-9.845z"/>
    </g>
</svg>